<mxfile host="app.diagrams.net" modified="2022-10-08T08:14:23.911Z" agent="5.0 (Macintosh; Intel Mac OS X 10_15_7) AppleWebKit/537.36 (KHTML, like Gecko) Chrome/105.0.0.0 Safari/537.36" etag="GJRmW0j-3Z4Tl4nSbP-T" version="20.3.7" type="github">
  <diagram id="T8S1r6oe1QkeyQazQimm" name="第 1 页">
    <mxGraphModel dx="1018" dy="658" grid="1" gridSize="10" guides="1" tooltips="1" connect="1" arrows="1" fold="1" page="1" pageScale="1" pageWidth="250" pageHeight="100" math="0" shadow="0">
      <root>
        <mxCell id="0" />
        <mxCell id="1" parent="0" />
        <mxCell id="dL6KISFYhIp3N7LUWMEg-1" value="Yangyangzx" style="text;html=1;align=center;verticalAlign=middle;resizable=0;points=[];autosize=1;strokeColor=none;fillColor=none;fontSize=35;fontFamily=Lucida Console;" vertex="1" parent="1">
          <mxGeometry x="15" y="20" width="220" height="60" as="geometry" />
        </mxCell>
      </root>
    </mxGraphModel>
  </diagram>
</mxfile>
